<svg width="921" height="349" viewBox="0 0 921 349" fill="none" xmlns="http://www.w3.org/2000/svg">
<path d="M494.076 188.237H482.157L479.975 94.0171L460.5 150.786L441.365 94.0192L438.847 188.237H427.096L430.454 75.2073L444.415 75.1992L460.575 123.132L476.654 75.2224L490.722 75.2093L494.076 188.237Z" fill="#481D5C"/>
<path d="M582.033 188.236H540.406V178.07H555.514V85.3772H540.406V75.2091H582.033V85.3772H566.754V178.07H582.033V188.236Z" fill="#481D5C"/>
<path d="M691.989 188.237H677.047L643.479 93.0028L643.141 92.6137V188.237H631.893V75.2092L646.855 75.2021L680.198 170.231L680.589 170.332L680.743 75.2102H691.989V188.237Z" fill="#481D5C"/>
<path d="M797.749 187.391L786.733 190.425L777.871 153.326H747.451L738.754 190.46L727.575 187.387L755.947 75.205H769.377L797.749 187.391ZM775.301 143.163L762.834 90.4471L750.021 143.163H775.301Z" fill="#481D5C"/>
<path d="M897.795 154.347C897.795 165.644 895.165 174.117 889.905 179.765C884.645 185.413 877.874 188.236 869.593 188.233H833.502V178.07H842.566V85.3772H833.502V75.2091H867.746C874.236 75.2091 880 77.8078 885.036 83.0051C890.073 88.2023 892.591 95.0936 892.59 103.679C892.66 108.121 891.652 112.514 889.653 116.472C887.624 120.331 884.496 123.489 880.673 125.538C886.715 128.25 891.079 131.95 893.766 136.638C896.452 141.326 897.795 147.229 897.795 154.347ZM880.84 103.679C880.84 96.9002 879.218 92.1556 875.973 89.445C872.729 86.7345 867.525 85.3785 860.361 85.3772H853.813V121.642H863.886C875.189 121.642 880.84 115.654 880.84 103.679ZM886.045 154.177C886.045 146.156 884.31 140.423 880.84 136.977C877.37 133.53 872.446 131.808 866.068 131.809H853.812V178.07H869.092C871.483 178.167 873.862 177.678 876.025 176.645C878.189 175.612 880.072 174.067 881.515 172.14C884.533 168.187 886.044 162.199 886.045 154.177Z" fill="#481D5C"/>
<path d="M440.841 301.226H423.89V297.086H430.042V259.342H423.89V255.202H440.841V259.342H434.621V297.086H440.841V301.226Z" fill="#481D5C"/>
<path d="M485.408 259.342H475.773V301.226H471.194V259.342H461.351V255.202H485.412L485.408 259.342Z" fill="#481D5C"/>
<path d="M567.021 288.875C567.155 292.238 566.102 295.539 564.048 298.19C562.065 300.629 559.229 301.847 555.538 301.847C551.755 301.847 548.953 300.731 547.13 298.501C545.308 296.27 544.215 293.154 543.85 289.151L548.429 288.53C548.598 290.891 549.275 293.187 550.411 295.258C551.369 296.753 553.124 297.501 555.675 297.501C556.596 297.54 557.513 297.375 558.364 297.017C559.214 296.659 559.976 296.117 560.597 295.43C561.827 294.049 562.442 292.003 562.441 289.289C562.441 286.576 561.78 284.529 560.46 283.148C558.432 281.25 556.169 279.627 553.727 278.318C551.245 277.004 548.984 275.303 547.028 273.277C545.729 271.759 545.08 269.436 545.08 266.308C545.013 263.276 546.06 260.326 548.019 258.027C548.955 256.906 550.129 256.013 551.455 255.416C552.781 254.818 554.224 254.532 555.675 254.577C556.999 254.511 558.322 254.733 559.554 255.227C560.786 255.721 561.899 256.475 562.818 257.44C564.681 259.577 565.924 262.192 566.407 264.996L561.964 265.687C561.62 263.917 560.897 262.245 559.845 260.787C559.348 260.163 558.71 259.668 557.984 259.344C557.259 259.02 556.467 258.876 555.675 258.924C554.809 258.866 553.942 259.029 553.153 259.396C552.365 259.764 551.681 260.326 551.163 261.029C550.118 262.582 549.593 264.432 549.665 266.308C549.557 267.884 550.005 269.449 550.929 270.724C551.772 271.736 553.925 273.288 557.389 275.381C560.153 276.913 562.657 278.882 564.805 281.212C566.282 283.01 567.021 285.564 567.021 288.875Z" fill="#481D5C"/>
<path d="M609.059 278.18C609.121 283.696 608.384 289.193 606.871 294.494C605.413 299.394 601.927 301.843 596.414 301.843C594.441 301.942 592.483 301.46 590.778 300.456C589.072 299.451 587.693 297.967 586.809 296.185C584.782 292.414 583.768 286.411 583.767 278.175C583.664 272.575 584.461 266.994 586.126 261.65C587.698 256.935 591.127 254.577 596.413 254.577C598.379 254.486 600.329 254.972 602.027 255.976C603.725 256.981 605.099 258.46 605.982 260.236C608.033 264.011 609.059 269.992 609.059 278.18ZM604.274 278.18C604.274 271.877 603.853 267.093 603.01 263.828C602.167 260.562 599.968 258.929 596.414 258.928C592.904 258.928 590.717 260.711 589.851 264.276C588.885 268.844 588.45 273.51 588.553 278.18C588.553 284.896 589.099 289.796 590.193 292.877C591.286 295.959 593.36 297.5 596.414 297.5C600.559 297.5 602.906 295.361 603.453 291.083C604.001 286.804 604.275 282.494 604.274 278.18Z" fill="#481D5C"/>
<path d="M651.78 301.226H628.472V255.202H633.052V297.086H651.781L651.78 301.226Z" fill="#481D5C"/>
<path d="M689.648 290.047C689.719 291.608 689.484 293.167 688.956 294.636C688.428 296.104 687.618 297.453 686.572 298.604C684.372 300.682 681.474 301.84 678.461 301.847C675.449 301.853 672.546 300.707 670.337 298.639C669.307 297.513 668.509 296.192 667.987 294.754C667.465 293.315 667.23 291.786 667.295 290.255V255.202H671.875V288.672C671.756 290.922 672.203 293.165 673.173 295.193C674.039 296.734 675.793 297.505 678.436 297.505C680.989 297.505 682.732 296.698 683.667 295.085C684.684 293.108 685.167 290.894 685.065 288.668V255.198H689.645L689.648 290.047Z" fill="#481D5C"/>
<path d="M731.48 259.342H721.841V301.226H717.261V259.342H707.418V255.202H731.48V259.342Z" fill="#481D5C"/>
<path d="M768.937 301.226H751.986V297.086H758.138V259.342H751.986V255.202H768.937V259.342H762.717V297.086H768.937V301.226Z" fill="#481D5C"/>
<path d="M814.119 277.721C814.181 283.238 813.444 288.734 811.931 294.036C810.471 298.935 806.985 301.385 801.472 301.384C799.5 301.484 797.542 301.002 795.837 299.997C794.132 298.993 792.753 297.509 791.869 295.726C789.84 291.955 788.826 285.952 788.827 277.717C788.724 272.116 789.52 266.535 791.185 261.191C792.757 256.476 796.186 254.118 801.471 254.118C803.438 254.028 805.388 254.514 807.086 255.518C808.784 256.522 810.158 258.001 811.041 259.777C813.092 263.552 814.118 269.533 814.119 277.721ZM809.334 277.721C809.334 271.419 808.913 266.635 808.07 263.369C807.227 260.103 805.028 258.47 801.473 258.469C797.963 258.469 795.776 260.252 794.912 263.818C793.946 268.385 793.51 273.051 793.614 277.721C793.614 284.438 794.161 289.337 795.255 292.419C796.349 295.5 798.422 297.041 801.474 297.042C805.62 297.042 807.967 294.903 808.515 290.624C809.061 286.345 809.335 282.035 809.334 277.721Z" fill="#481D5C"/>
<path d="M854.721 300.768H848.635L834.967 261.989L834.829 261.831V300.768H830.25V254.743H836.341L849.919 293.431L850.077 293.472L850.141 254.739H854.721V300.768Z" fill="#481D5C"/>
<path d="M895.121 288.416C895.255 291.779 894.201 295.08 892.148 297.731C890.166 300.17 887.329 301.389 883.638 301.388C879.855 301.388 877.053 300.273 875.23 298.042C873.408 295.811 872.314 292.695 871.949 288.692L876.529 288.071C876.698 290.432 877.375 292.728 878.511 294.799C879.468 296.294 881.222 297.042 883.775 297.042C884.695 297.081 885.613 296.916 886.463 296.559C887.313 296.201 888.076 295.659 888.696 294.971C889.927 293.591 890.542 291.544 890.541 288.831C890.54 286.117 889.879 284.07 888.56 282.689C886.532 280.792 884.268 279.168 881.827 277.859C879.344 276.546 877.083 274.844 875.127 272.818C873.829 271.3 873.18 268.977 873.18 265.849C873.113 262.817 874.16 259.867 876.119 257.568C877.054 256.447 878.229 255.554 879.555 254.957C880.881 254.359 882.324 254.073 883.775 254.118C885.099 254.052 886.422 254.274 887.654 254.768C888.886 255.262 889.999 256.017 890.918 256.981C892.781 259.118 894.023 261.733 894.506 264.537L890.063 265.228C889.72 263.458 888.997 261.786 887.945 260.328C887.447 259.704 886.809 259.21 886.084 258.885C885.359 258.561 884.567 258.417 883.775 258.465C882.909 258.408 882.041 258.57 881.253 258.938C880.465 259.305 879.781 259.867 879.263 260.57C878.216 262.123 877.689 263.973 877.759 265.849C877.651 267.426 878.099 268.99 879.024 270.265C879.866 271.277 882.019 272.829 885.484 274.922C888.248 276.454 890.752 278.423 892.9 280.753C894.381 282.551 895.121 285.105 895.121 288.416Z" fill="#481D5C"/>
<path d="M222.449 9.59961C221.573 9.59961 220.704 9.60969 219.828 9.62784V60.438H192.095V9.63288C191.219 9.61372 190.35 9.60465 189.473 9.60465C107.525 9.60465 41.0919 84.4891 41.0919 176.862C41.0919 238.776 70.9436 292.841 115.308 321.756L142.604 322.838L136.812 333.276C151.726 339.682 167.664 343.314 183.858 343.997L192.099 329.606V107.535H219.831V344.087C220.708 344.106 221.577 344.115 222.453 344.115C304.401 344.115 370.835 269.23 370.835 176.858C370.835 84.4851 304.399 9.59961 222.449 9.59961ZM142.518 266.887C142.518 266.887 114.961 245.506 108.877 192.254C102.793 139.002 142.518 105.655 142.518 105.655V266.887ZM303.046 192.254C296.961 245.506 269.403 266.887 269.403 266.887V105.653C269.403 105.653 309.13 139.002 303.046 192.254Z" fill="#481D5C"/>
</svg>
